<?xml version="1.0" encoding="UTF-8"?>
<svg width="195px" height="34px" viewBox="0 0 195 34" version="1.1" xmlns="http://www.w3.org/2000/svg" xmlns:xlink="http://www.w3.org/1999/xlink">
    <title>BMGF_bw_logo white@2x</title>
    <g id="BMGF_bw_logo-white" stroke="none" stroke-width="1" fill="none" fill-rule="evenodd">
        <g id="BMGF_bw_logo" fill="#FFFFFF" fill-rule="nonzero">
            <path d="M66.17052,16.0872545 C64.639224,16.0872545 63.107772,16.0872545 61.464624,16.0872545 C61.622808,15.9684091 61.676784,15.8962364 61.73076,15.8926818 C62.984376,15.8783091 63.227424,15.0784282 63.327732,14.1416509 C63.809772,9.69559455 64.299768,5.25312364 64.805052,0.810668182 C64.83594,0.554856818 65.024856,0.313458364 65.140608,0.0648534545 C65.341224,0.266620273 65.61126,0.439562818 65.730756,0.673754818 C67.771236,4.63702818 69.796272,8.60748636 71.825208,12.5743591 C71.94486,12.8085573 72.076056,13.0355382 72.272772,13.3922291 C74.533056,8.85248727 76.73562,4.42445091 78.938028,0 C79.030692,0.0108089091 79.119456,0.0180149 79.211964,0.0288238091 C79.289184,0.331473727 79.401036,0.626916727 79.439568,0.933168636 C79.937208,5.15225182 80.423148,9.37132727 80.920788,13.5904027 C80.95932,13.9218718 81.03264,14.2533409 81.121248,14.5776082 C81.329664,15.3342318 81.858036,15.7522 82.706676,15.8062909 C83.0037,15.8242182 83.300724,15.8710455 83.582304,16.0260545 C82.043208,16.0260545 80.500368,16.0260545 79.034592,16.0260545 C79.034592,15.4243164 79.073124,14.95592 79.026792,14.4947409 C78.737568,11.3349355 78.429,8.17513 78.124176,5.01532455 C78.101088,4.77394 78.054756,4.53254 77.989236,4.10018364 C75.937056,8.22197273 73.962252,12.1888455 71.987292,16.1557182 C71.910072,16.1665364 71.833008,16.1773545 71.755788,16.1881727 C69.460716,12.4230282 67.64784,8.42734818 65.545584,4.51091909 C65.441532,5.59901182 65.333424,6.68710455 65.237016,7.77521273 C65.051844,9.84691 64.870572,11.9150218 64.6932,13.9867191 C64.669956,14.2533409 64.677756,14.5235636 64.669956,14.7901855 C64.650768,15.4351191 64.924548,15.8134 65.67288,15.8098455 C65.846508,15.8098455 66.016236,15.8891273 66.189708,15.9324 C66.185964,15.9827818 66.178164,16.0368727 66.17052,16.0872545 Z" id="Path"></path>
            <path d="M7.8418392,7.32182273 C8.4474312,7.65690818 9.0414636,7.91271182 9.54291,8.28022091 C11.147526,9.44397909 11.8148472,10.9932509 11.3403888,12.8451691 C10.8466644,14.7619345 9.3963324,15.8283909 7.3751184,16.1850818 C6.5612352,16.3292727 5.7087732,16.3040818 4.8717396,16.3147455 C3.3982572,16.3363818 1.9286436,16.3220091 0.39729924,16.3220091 C0.47058804,16.0986909 0.47830224,16.0302273 0.5014464,16.0229636 C1.7357808,15.6806455 1.8900648,15.5222364 1.90164,14.24311 C1.9247748,11.1373645 1.9247748,8.02800273 1.9286436,4.92225727 C1.9286436,4.00710091 1.9247748,3.08834364 1.8900648,2.17320273 C1.8437796,1.07068936 1.6239132,0.876129 0.45515808,0.775246364 C0.32786832,0.764437455 0.21215064,0.695981545 0,0.623921636 C0.15814812,0.508627636 0.23915112,0.393332091 0.32015412,0.396934545 C2.3992332,0.418552364 4.4975892,0.296051909 6.5535132,0.523039 C9.4696212,0.843702273 10.6460952,3.37658636 9.1108836,5.72570818 C8.7405864,6.29137545 8.2661436,6.79579636 7.8418392,7.32182273 Z M3.9112788,7.94153455 C3.9112788,10.1645627 3.8842752,12.38399 3.9459888,14.6034173 C3.9537108,14.8700236 4.3857216,15.2519518 4.7097336,15.3708436 C7.0048212,16.2067182 9.8013396,15.3960655 9.5236128,12.2867036 C9.288318,9.64933909 7.4754108,7.37946818 3.9112788,7.94153455 Z M3.80328,4.16203273 C3.80328,4.69887727 3.80328,5.23570636 3.80328,5.77255091 C3.80328,7.33984273 3.80328,7.33984273 5.4850536,7.28579818 C7.07811,7.23175364 7.8148512,6.64086455 7.9614288,5.16005636 C8.0231424,4.52952636 7.9729884,3.85938636 7.8109824,3.24327545 C7.3866936,1.64716091 6.3838008,1.00943836 4.6248696,1.04186509 C4.0385748,1.052674 3.7492728,1.20039627 3.7917048,1.81649636 C3.8418432,2.59474091 3.80328,3.38018727 3.80328,4.16203273 Z" id="Shape"></path>
            <path d="M117.123084,2.27441455 C118.94766,4.15155455 120.77208,6.03229545 122.6004,7.90945091 C124.42872,9.78659091 126.26094,11.66013 128.120148,13.5624918 C128.120148,12.3086645 128.135592,11.1160836 128.116404,9.92710364 C128.089416,8.02834273 128.066172,6.12958182 127.992852,4.23082091 C127.946676,3.04544182 127.8888,3.03103818 126.658272,2.81846091 C126.527076,2.79684 126.396036,2.75721455 126.276384,2.61308545 C127.757604,2.61308545 129.234924,2.61308545 130.77402,2.61308545 C130.7007,2.74639636 130.689156,2.78243636 130.677612,2.78243636 C129.354576,2.86530364 129.381564,3.73721818 129.37002,4.64515727 C129.323688,8.12923 129.246468,11.6132873 129.177048,15.09736 C129.169404,15.4504345 129.130872,15.8035091 128.999676,16.2322182 C126.951396,14.6722055 125.169408,12.8707155 123.410508,11.0584382 C121.647708,9.24254455 119.962128,7.36178818 118.183884,5.44862364 C118.122108,7.34018273 118.052688,9.18128273 118.010256,11.0223982 C117.983268,12.1573336 117.921492,13.2994709 118.006356,14.4308055 C118.09512,15.6089364 118.191528,15.6341273 119.4375,15.8576 C119.545452,15.8755273 119.64576,15.9331727 119.734524,16.0917364 C118.272648,16.0917364 116.806872,16.0917364 115.27542,16.0917364 C115.371828,15.9837091 115.391172,15.9296182 115.429704,15.9188 C116.702664,15.4900909 116.729652,15.4757182 116.733552,14.1245582 C116.741196,10.5035736 116.733552,6.88260455 116.741196,3.26162 C116.741196,2.96617545 116.802972,2.67074636 116.837604,2.37170091 C116.930268,2.33566091 117.026676,2.30323727 117.123084,2.27441455 Z" id="Path"></path>
            <path d="M133.020732,2.56632 C133.147872,2.54469909 133.279068,2.50507364 133.406364,2.50507364 C135.485532,2.50867455 137.568444,2.47263455 139.647456,2.53389636 C141.7689,2.59514273 143.786292,3.01668091 145.390908,4.45066182 C147.446832,6.29177727 148.017792,9.48760727 146.752632,12.2258591 C145.537548,14.8524209 143.304096,16.1495364 140.303124,16.3008364 C139.09194,16.3620364 137.865468,16.2142909 136.646484,16.1891 C135.535608,16.1674636 134.424732,16.1855455 133.298412,16.1855455 C133.313856,16.0089 133.313856,15.9368818 133.3254,15.9368818 C134.274348,15.8253 134.482608,15.20191 134.490252,14.4524882 C134.51724,12.0853464 134.544228,9.71820455 134.567472,7.35464818 C134.575116,6.37104364 134.571216,5.38743909 134.567472,4.40743545 C134.563572,3.22925818 134.467164,3.12116909 133.25208,2.81492182 C133.167216,2.79330091 133.086252,2.75007455 133.005288,2.71763545 C133.012932,2.66359091 133.016832,2.61676364 133.020732,2.56632 Z M136.175988,8.77422545 C136.195176,8.77422545 136.21842,8.77422545 136.237608,8.77422545 C136.237608,10.5612964 136.199076,12.3519682 136.253052,14.1354382 C136.28394,15.1154418 136.573164,15.3388218 137.62242,15.5298091 C137.811336,15.5658182 138.000408,15.5945636 138.18948,15.6162 C141.726468,16.0126091 145.140216,14.6470609 145.614612,10.7486518 C146.019744,7.42671273 144.148992,4.33177 140.877984,3.53190455 C139.651356,3.23285909 138.32052,3.27610091 137.036016,3.20403636 C136.42668,3.17161273 136.152744,3.47065818 136.164288,4.07956727 C136.199076,5.64324273 136.175988,7.20693364 136.175988,8.77422545 Z" id="Shape"></path>
            <path d="M151.58364,16.0810727 C150.164196,16.0810727 148.740852,16.0810727 147.225,16.0810727 C147.352296,15.9693364 147.387084,15.9116909 147.421716,15.9116909 C148.760196,15.9368818 149.284824,15.0830491 149.666712,14.0886264 C150.3957,12.2006682 151.113144,10.3091091 151.838232,8.41755 C152.5056,6.67372091 153.169068,4.92989182 153.84798,3.18964818 C153.963732,2.89060273 154.145004,2.60957727 154.384152,2.14839818 C154.600056,2.58075455 154.739052,2.82575545 154.847004,3.08155909 C156.29328,6.57643455 157.73628,10.0749264 159.17928,13.5734027 C159.2292,13.6995118 159.27912,13.8256055 159.33684,13.9481136 C159.80016,14.9533391 160.27752,15.9441455 161.74704,16.0017909 C160.47096,16.2215545 159.23232,16.2396364 157.99836,16.0846273 C157.99836,15.7352 158.07948,15.4145182 157.98276,15.1478964 C157.51944,13.8580445 157.0296,12.5753791 156.49452,11.31435 C156.40092,11.1017727 156.03432,10.8711755 155.780508,10.8567718 C154.704264,10.8063282 153.624276,10.8063282 152.548032,10.8567718 C152.30124,10.8675745 151.94634,11.1197773 151.853676,11.3359555 C151.464144,12.2691318 151.151676,13.2347318 150.81222,14.1859127 C150.345468,15.5117273 150.349368,15.5117273 151.58364,16.0810727 Z M156.0234,10.1541927 C155.371632,8.42836818 154.750596,6.79261273 154.13346,5.16047364 C154.079328,5.16767545 154.025352,5.17127636 153.971376,5.17849364 C153.388872,6.81423364 152.806524,8.45359 152.197032,10.1541927 C153.504624,10.1541927 154.68882,10.1541927 156.0234,10.1541927 Z" id="Shape"></path>
            <path d="M93.109848,2.57327455 C93.017184,3.28667182 92.920776,4.03247727 92.824368,4.77829818 C92.681628,4.75667727 92.639196,4.76027818 92.639196,4.74947545 C92.172444,3.36593818 92.172444,3.36593818 90.567828,3.31909545 C90.016212,3.30467636 89.464752,3.24343 88.91688,3.27585364 C88.739508,3.28667182 88.43484,3.52085455 88.43094,3.65776636 C88.396152,5.26469909 88.407852,6.86801545 88.407852,8.58302182 C89.892816,8.48935182 91.350948,8.83522455 92.832012,8.10382273 C92.72406,8.96853545 92.627652,9.77200182 92.527344,10.5718673 C92.469468,10.5754682 92.411592,10.5754682 92.353716,10.5790691 C92.322984,10.47098 92.265108,10.35929 92.272752,10.2512009 C92.295996,9.71795727 91.94874,9.44053273 91.4589,9.39369 C90.579372,9.30722182 89.6922,9.27839909 88.805028,9.27119727 C88.673988,9.27119727 88.42704,9.53420273 88.42314,9.67833182 C88.396152,11.17716 88.376964,12.6759882 88.419396,14.1712155 C88.442484,15.0179236 88.808928,15.3313727 89.715444,15.3782155 C90.359568,15.41424 91.011492,15.41424 91.655616,15.3782155 C92.620008,15.3241709 92.959308,15.0467464 93.244788,14.1892355 C93.29112,14.0487227 93.337452,13.90821 93.476292,13.7821009 C93.603588,14.5603455 93.487836,15.3169691 93.167724,16.0374909 C93.117492,16.1527818 92.79738,16.2104273 92.596764,16.2141364 C91.806,16.2285091 91.015236,16.2068727 90.224628,16.1997636 C88.886148,16.1925 87.547668,16.1889455 86.212932,16.1744182 C85.96614,16.1708636 85.719192,16.1275909 85.4685,15.9690273 C85.568808,15.9259091 85.665216,15.8501818 85.765524,15.8466273 C86.444436,15.8106182 86.648796,15.4358609 86.656596,14.8593909 C86.683584,12.84894 86.74146,10.8384736 86.768448,8.82802273 C86.787792,7.35081545 86.772348,5.87719364 86.772348,4.39998636 C86.772348,3.17136545 86.729916,3.12093727 85.4724,2.80387182 C85.387536,2.78225091 85.306572,2.73540818 85.237152,2.56607273 C87.832992,2.57327455 90.428988,2.57327455 93.109848,2.57327455 Z" id="Path"></path>
            <path d="M51.160668,7.80541091 C52.032396,6.78216545 52.861692,5.84178727 53.640912,4.86898545 C53.903148,4.54111727 53.961024,4.15200273 53.59458,3.76647364 C53.475084,3.64038 53.502072,3.28008818 53.610024,3.11073727 C53.702688,2.96662364 54.030444,2.85493364 54.219516,2.89095818 C54.431676,2.9342 54.771132,3.1756 54.759588,3.30529455 C54.697812,3.88898182 54.693912,4.55913727 54.3699,5.01671545 C53.783652,5.84538818 53.058408,6.62003182 52.2561,7.27216727 C50.775036,8.47195 49.208952,9.58166364 47.646768,10.6913773 C47.241636,10.97962 47.12214,11.2606455 47.203104,11.7074209 C47.484684,13.2386727 49.243584,14.1069864 51.002484,13.5593391 C53.023776,12.9324255 54.771132,10.5508645 54.705612,8.56923636 C54.686268,8.01077091 54.269592,7.96754455 53.88396,7.93510545 C53.332344,7.88467727 52.715208,8.46114727 52.75374,8.94394727 C52.769184,9.14210545 52.877136,9.33306182 52.888836,9.53122 C52.90038,9.75099909 52.931268,10.0392418 52.803972,10.1761536 C52.699764,10.2878436 52.317876,10.3130655 52.163592,10.2229964 C51.97452,10.1149073 51.789504,9.84108364 51.793248,9.64291 C51.812592,8.87188273 52.290888,8.29901364 52.908024,7.84863727 C53.984268,7.06319091 54.913872,7.11363455 55.951428,7.94592364 C56.240808,8.18010636 56.510688,8.43952636 56.819256,8.64490182 C56.969796,8.74577364 57.220488,8.82143909 57.382416,8.77099545 C57.486624,8.73857182 57.556044,8.46834909 57.556044,8.30261455 C57.559944,7.98194818 57.224388,7.51716818 57.876156,7.50274909 C58.10766,7.49914818 58.489548,7.78739091 58.558968,8.01077091 C58.693908,8.43592545 58.659276,8.93312909 58.100016,9.13850455 C57.61392,9.31504182 57.100836,9.45917091 56.587908,9.54924 C56.425824,9.57806273 56.190576,9.41232818 56.043936,9.27901727 C55.7895,9.05563727 55.57734,8.78901545 55.203096,8.37828 C55.168464,8.91512455 55.14912,9.25739636 55.126032,9.59968364 C54.948504,12.1938218 52.603356,14.4276527 49.849176,14.6294118 C47.180016,14.8239845 45.563856,13.0585345 46.20408,10.6373327 C46.582068,9.19975091 47.426808,8.07563364 48.869496,7.40187727 C49.633272,7.04157 50.412336,6.85061364 51.160668,7.80541091 Z M47.199204,10.4355736 C48.074832,9.81226091 48.842508,9.31504182 49.529064,8.73857182 C49.694892,8.59805909 49.602384,8.19092455 49.625472,7.90628273 C49.367136,7.90988364 49.031424,7.81621364 48.865596,7.93510545 C48.0402,8.52959545 47.442252,9.27901727 47.199204,10.4355736 Z" id="Shape"></path>
            <path d="M96.464472,2.57664364 C98.026812,2.57664364 99.585096,2.57664364 101.14728,2.57664364 C101.15118,2.61626909 101.158824,2.65951091 101.162724,2.69913636 C101.043072,2.74237818 100.927476,2.79642273 100.803924,2.82524545 C99.758724,3.07024636 99.677604,3.13869455 99.681504,4.11871364 C99.689148,7.26770091 99.708492,10.4166882 99.727836,13.5692918 C99.727836,13.8575191 99.758724,14.1493627 99.801156,14.4376055 C99.87822,14.9996718 100.244664,15.3383427 100.834812,15.3887864 C101.594688,15.4536336 102.358464,15.4679909 103.12224,15.4717 C104.167596,15.4717 104.827164,14.9816518 105.0855,14.0304709 C105.108744,13.9476036 105.16272,13.8683373 105.205152,13.7890709 C105.212796,13.7746518 105.239784,13.76745 105.428856,13.6485582 C105.320904,14.4520091 105.282216,15.1437855 105.100944,15.8032 C105.046968,15.9940636 104.59566,16.1921909 104.31798,16.2067182 C103.434708,16.2535455 102.547536,16.2138273 101.660364,16.2030091 C100.22532,16.1850818 98.794332,16.1598909 97.359444,16.1382545 C97.12794,16.1345455 96.900492,16.1129091 96.6459,16.0985364 C96.680532,16.0121455 96.688332,15.9761364 96.695976,15.9761364 C97.930248,15.7994909 98.003568,14.9312082 98.007468,14.0412736 C98.015112,10.8922864 98.015112,7.73968273 98.015112,4.59069545 C98.015112,4.41415818 97.968936,4.23400455 97.968936,4.05745182 C97.968936,3.32605 97.660368,2.86127 96.807828,2.82524545 C96.676632,2.81804364 96.553236,2.74958 96.42594,2.71355545 C96.441384,2.66311182 96.452928,2.61987 96.464472,2.57664364 Z" id="Path"></path>
            <path d="M33.714252,2.75774 C35.264892,2.75774 36.811632,2.75774 38.362272,2.75774 C38.366172,2.79738091 38.373816,2.83700636 38.377716,2.87664727 C38.273508,2.91267182 38.1771,2.97391818 38.069148,2.98473636 C37.1241,3.09282545 36.900396,3.26936273 36.90414,4.14849455 C36.919584,7.45241364 36.942828,10.7563327 37.008348,14.0602518 C37.031436,15.2744382 37.343904,15.5086364 38.67474,15.5554636 C39.245544,15.5771 39.820248,15.5446455 40.395108,15.5627273 C41.691156,15.5987364 42.161652,14.7988555 42.593772,13.7972309 C42.605316,14.0242118 42.651492,14.2548091 42.628404,14.48179 C42.447132,16.3445727 42.443232,16.3589455 40.464528,16.3408636 C38.381616,16.3229364 36.302448,16.2688455 34.219536,16.2292818 C34.138572,16.2292818 34.057608,16.2076455 33.910968,16.1319182 C35.176128,16.0274455 35.199372,15.1699655 35.199372,14.3701 C35.203116,10.93287 35.183928,7.49564 35.14524,4.05841 C35.133696,3.18289455 34.990956,3.10002727 34.057608,2.98473636 C33.934056,2.97031727 33.81846,2.90907091 33.698808,2.86582909 C33.702708,2.82980455 33.710352,2.79378 33.714252,2.75774 Z" id="Path"></path>
            <path d="M32.028048,13.8336109 C31.904652,14.5433918 31.850676,15.2711927 31.619172,15.9521818 C31.549752,16.1538636 30.998136,16.3232455 30.66648,16.3232455 C28.583568,16.3196909 26.500656,16.2656 24.417744,16.2295909 C24.058944,16.2223273 23.7003,16.2295909 23.318412,16.1359364 C23.453352,16.0818455 23.584548,15.9846364 23.723388,15.9773727 C24.217128,15.9449182 24.375312,15.6494273 24.409944,15.2603745 C24.490908,14.3272136 24.618204,13.3904364 24.618204,12.4572755 C24.618204,9.68658455 24.599016,6.91590909 24.521796,4.14883455 C24.494808,3.14721 24.367512,3.10756909 23.279724,2.98507636 C23.167872,2.97425818 23.06382,2.92383 22.967412,2.76529727 C24.560328,2.76529727 26.1534,2.76529727 27.742728,2.76529727 C27.750372,2.79772091 27.754272,2.82654364 27.761916,2.85896727 C27.665508,2.90220909 27.573,2.96705636 27.468792,2.98147545 C26.400348,3.13639182 26.253708,3.21925909 26.242164,4.23890364 C26.215176,7.41311273 26.199732,10.5837364 26.253708,13.7579455 C26.276952,15.2207491 26.631696,15.4802 28.190136,15.5594818 C28.641444,15.5811182 29.100396,15.5954909 29.551704,15.5665909 C31.02138,15.4729364 31.283616,15.2603745 31.680948,13.9417 C31.696392,13.8876555 31.754268,13.8444136 31.7928,13.79397 C31.873764,13.8047882 31.950984,13.8191918 32.028048,13.8336109 Z" id="Path"></path>
            <path d="M107.823612,2.57664364 C109.235256,2.57664364 110.647056,2.57664364 112.0743,2.57664364 C112.051056,2.67031364 112.051056,2.70633818 112.039512,2.70633818 C110.762808,2.91531455 110.782152,3.77642636 110.793696,4.71320364 C110.832228,7.86219091 110.820684,11.0075773 110.832228,14.15658 C110.832228,14.4232018 110.87856,14.6898082 110.917092,14.9528291 C110.990412,15.5004455 111.333612,15.7778545 111.920016,15.8175727 C112.124376,15.8319455 112.324992,15.8823273 112.514064,16.0625273 C110.963424,16.0625273 109.416528,16.0625273 107.866044,16.0625273 C109.331664,15.7526636 109.088772,14.6537836 109.096416,13.7170064 C109.127304,10.5247773 109.11966,7.33254818 109.127304,4.14031909 C109.127304,3.45215909 108.949932,2.89369364 108.070404,2.81082636 C107.973996,2.80362455 107.889132,2.72435818 107.796468,2.67751545 C107.808168,2.64509182 107.815812,2.61266818 107.823612,2.57664364 Z" id="Path"></path>
            <path d="M15.0359508,2.74454182 C16.451604,2.74454182 17.867148,2.74454182 19.32138,2.74454182 C19.267404,2.84542909 19.25586,2.91027636 19.224972,2.91747818 C18.025332,3.29579 18.021432,3.29579 18.025332,4.53881455 C18.032976,7.66259545 18.040776,10.7899773 18.05232,13.9137427 C18.05232,14.1371382 18.071664,14.3605182 18.094752,14.5802973 C18.218148,15.7477182 18.218148,15.7477182 19.437132,16.0178636 C19.518096,16.0359455 19.595316,16.0684 19.656936,16.1908 C18.148728,16.1908 16.64052,16.1908 15.1323744,16.1908 C16.486236,15.9458455 16.320408,14.9369882 16.328208,14.0542709 C16.351296,10.93049 16.374384,7.80670909 16.328208,4.68294364 C16.301064,3.32461273 16.2201,3.32461273 15.0359508,2.74454182 Z" id="Path"></path>
            <path d="M64.594296,24.5973 C64.382136,24.7342273 64.308816,24.8206182 64.231752,24.8243273 C63.178752,24.8566273 62.951148,25.4944364 62.943348,26.3158455 C62.931804,27.8795364 62.889372,29.4432273 62.900916,31.0069182 C62.904816,31.5005364 62.735088,31.8284818 62.229804,31.9797818 C58.422624,33.1399545 54.68502,33.1254273 51.29826,30.9565364 C48.520992,29.1766364 47.668608,26.4527727 48.038796,23.4587636 C48.582768,19.0415455 51.684048,16.4437909 56.470908,16.3464273 C58.179576,16.3104182 59.899944,16.5699 61.608768,16.7501 C63.036012,16.9014 63.024312,16.9409636 62.939448,18.2705182 C62.893272,18.9910091 62.873928,19.7152091 62.839296,20.4394091 C62.758176,20.4466727 62.677212,20.4539364 62.592348,20.4574909 C62.549916,20.2881091 62.488296,20.1259909 62.465052,19.9530545 C62.345556,19.074 61.921236,18.3498 61.064952,17.9677636 C58.314672,16.7355727 55.533504,16.6094636 52.802568,18.0074818 C51.0861,18.8865364 50.353212,20.4142182 50.056188,22.1256545 C49.554804,25.0043727 50.225916,27.6237636 52.467012,29.7170818 C54.499848,31.6158273 57.057156,32.0950727 59.838324,31.6014545 C60.764028,31.4357818 60.922212,31.2050455 60.922212,30.3187273 C60.922212,29.0001455 60.929856,27.6814091 60.922212,26.3663818 C60.914412,25.2457727 60.748584,25.0728364 59.568288,24.8711545 C59.452536,24.8495182 59.336784,24.8170636 59.224932,24.7775 C59.1825,24.7629727 59.155512,24.7198545 59.016672,24.5973 C60.895224,24.5973 62.669568,24.5973 64.594296,24.5973 Z" id="Path"></path>
            <path d="M72.06186,18.5782182 C72.227688,18.9384636 72.40506,19.2951545 72.5556,19.6626636 C73.994232,23.1359182 75.42912,26.6091727 76.867908,30.0824273 C76.937328,30.2482545 77.010648,30.4139273 77.087868,30.5760455 C77.508288,31.484 78.094536,32.2046455 79.282632,32.3270455 C78.04056,32.3270455 76.798488,32.3270455 75.629736,32.3270455 C75.598848,31.9668 75.64518,31.6388545 75.537228,31.3614455 C75.051132,30.1040636 74.507316,28.8646091 74.02122,27.6072273 C73.88238,27.2469818 73.67802,27.1316909 73.288332,27.1388 C72.212244,27.1568818 71.132256,27.1208727 70.056012,27.1639909 C69.816864,27.1748091 69.45432,27.3693818 69.3771,27.5604 C68.968224,28.5584545 68.586336,29.5708818 68.281668,30.6012364 C67.922868,31.8082364 67.9692,31.8334273 69.280692,32.3451273 C67.714608,32.3451273 66.341496,32.3451273 64.86792,32.3451273 C64.991472,32.2442091 65.049192,32.1505545 65.107068,32.1541091 C66.217944,32.2046455 66.761916,31.5560182 67.097472,30.7094182 C67.880436,28.7241273 68.636568,26.7244636 69.396444,24.7285091 C70.0869,22.9234182 70.761912,21.1110636 71.456268,19.3095273 C71.55642,19.0502 71.710704,18.8088 71.8419,18.5601364 C71.91132,18.5674 71.98854,18.5745091 72.06186,18.5782182 Z M71.722404,21.3560182 C71.668272,21.3560182 71.614296,21.3560182 71.56032,21.3560182 C70.977972,23.0170727 70.395468,24.6816818 69.789876,26.4037818 C71.093568,26.4037818 72.304752,26.4037818 73.593156,26.4037818 C72.949032,24.6600455 72.33564,23.0098091 71.722404,21.3560182 Z" id="Shape"></path>
            <path d="M99.454056,18.8593364 C99.369192,19.5439727 99.276684,20.2898091 99.176376,21.0787636 C99.018192,21.0067455 98.948772,20.9923727 98.944872,20.9671818 C98.69808,19.7816636 98.70198,19.7564727 97.367244,19.6087273 C96.6576,19.5296 95.932356,19.5258909 95.218812,19.5402636 C95.060628,19.5439727 94.771404,19.7637364 94.767504,19.8898455 C94.736616,21.4931 94.74816,23.0965091 94.74816,24.7971273 C96.23328,24.6241909 97.702956,25.1176545 99.18402,24.3322545 C99.079968,25.2114636 98.97966,26.0580636 98.879352,26.9264545 C98.755956,26.8831818 98.682636,26.8759182 98.674992,26.8542818 C98.393412,25.6689182 98.34708,25.6293545 96.981612,25.5717091 C96.406908,25.5465182 95.832048,25.5573364 95.257344,25.5392545 C94.8987,25.5284364 94.736616,25.6509909 94.740516,26.0041273 C94.75206,27.4344455 94.717428,28.8647636 94.75986,30.2952364 C94.790592,31.3293 95.079972,31.5921818 96.179304,31.6787273 C96.773352,31.7255545 97.378944,31.7147364 97.969092,31.6570909 C99.164832,31.5418 99.346104,31.3688636 99.627684,30.2555182 C99.650772,30.1583091 99.704904,30.0682091 99.762624,29.9312818 C99.998028,30.4032636 99.851388,32.0281545 99.54282,32.2624455 C99.39618,32.3740273 99.149388,32.4210091 98.952672,32.4210091 C97.394388,32.4137455 95.839848,32.3885545 94.281564,32.3740273 C93.830256,32.3704727 93.375048,32.3956636 92.92374,32.4029273 C92.56494,32.4064818 92.210196,32.4029273 91.85904,32.3417273 C92.962272,31.8552182 93.027948,31.8552182 93.051036,30.6013909 C93.105012,27.1389545 93.101112,23.6765182 93.116556,20.2140818 C93.120456,19.5835364 92.796444,19.2089182 92.113632,19.1223727 C91.93626,19.1007364 91.762632,19.0647273 91.58526,19.0322727 C91.58526,18.9746273 91.58916,18.9206909 91.58916,18.8630455 C94.165812,18.8593364 96.754008,18.8593364 99.454056,18.8593364 Z" id="Path"></path>
            <path d="M89.44884,18.8726273 C89.44884,19.5248091 89.44884,20.2887273 89.44884,21.1317727 C89.298456,21.0416727 89.209692,21.0164818 89.202048,20.9804727 C89.082396,19.9427 88.268544,19.7050091 87.362028,19.6617364 C86.413236,19.6149091 85.460388,19.6509182 84.480708,19.6509182 C84.457464,19.8094818 84.430476,19.9139545 84.430476,20.0219818 C84.44202,23.4159545 84.430476,26.8136364 84.480708,30.2076091 C84.507696,31.8253909 84.561672,31.8253909 86.20482,32.3298273 C84.642636,32.3298273 83.080452,32.3298273 81.514368,32.3298273 C81.506724,32.3009273 81.49518,32.2684727 81.48738,32.2397273 C81.580044,32.2037182 81.668652,32.1423636 81.761316,32.1388091 C82.374552,32.1063545 82.648488,31.8145727 82.656132,31.2344091 C82.68312,28.9789727 82.740996,26.7270909 82.767984,24.4716545 C82.787328,22.8900364 82.771884,21.3082636 82.771884,19.7410182 C81.464292,19.7410182 80.202876,19.6869273 78.95706,19.7734727 C78.594516,19.7986636 78.25506,20.2238182 77.923248,20.4904091 C77.795952,20.5913273 77.730432,20.7642636 77.637924,20.9011909 C77.564604,20.8795545 77.495184,20.8579182 77.421864,20.8362818 C77.595492,20.0904455 77.76522,19.3483182 77.89626,18.7789727 C79.967628,18.8114273 81.869268,18.8509909 83.774808,18.8690727 C85.661004,18.8834455 87.5472,18.8726273 89.44884,18.8726273 Z" id="Path"></path>
            <path d="M110.066268,18.9168273 C110.066268,19.7094909 110.066268,20.4588818 110.066268,21.2082727 C110.008392,21.2263545 109.950516,21.2442818 109.89264,21.2659182 C109.815576,21.0750545 109.699824,20.8913 109.672836,20.6967273 C109.584072,20.0697364 109.213728,19.6554 108.581148,19.5005455 C108.056676,19.3707273 107.50116,19.2699636 106.961088,19.2807818 C106.09716,19.2987091 105.364272,19.6374727 105.001572,20.4228727 C104.642928,21.2010091 104.693004,22.0082 105.31794,22.6242182 C106.205112,23.4961636 107.204136,24.2671909 108.141384,25.0958636 C108.62748,25.5245727 109.136664,25.9461727 109.53774,26.4362364 C111.551232,28.8970636 110.027736,32.3234909 106.72584,32.6296455 C105.715272,32.7233 104.654472,32.4496 103.63236,32.2513182 C103.396956,32.2044909 103.099932,31.7937091 103.088388,31.5379364 C103.0575,30.8101818 103.157808,30.0787182 103.20414,29.3474091 C103.27356,29.3509636 103.34298,29.3545182 103.4124,29.3545182 C103.435644,29.4050545 103.478076,29.4554364 103.48182,29.5095273 C103.720968,31.4263545 105.38736,32.4242545 107.350776,31.8298727 C108.916704,31.3541818 109.576428,29.4878909 108.596592,28.1079545 C108.195516,27.5423182 107.609112,27.0847091 107.08464,26.5983545 C106.216656,25.7984273 105.236976,25.0887545 104.4693,24.2168091 C102.887772,22.4260909 103.335336,19.9436273 105.32184,19.0429364 C106.413372,18.5493182 107.586024,18.5060455 108.76632,18.6429727 C109.182996,18.6933545 109.599516,18.8159091 110.066268,18.9168273 Z" id="Path"></path>
            <path d="M157.84548,27.1316909 C157.68324,27.9928182 156.28704,29.2503545 155.488476,29.3294818 C154.952304,29.3800182 154.690068,29.1205364 154.817364,28.6017273 C154.94856,28.0685455 155.125932,27.5460273 155.311104,26.9408273 C154.705512,27.5424727 154.215672,28.1333 153.613824,28.5909091 C153.170316,28.9259636 152.595612,29.1854455 152.036196,29.3042909 C151.249332,29.4736727 150.79428,29.0737091 150.809724,28.3099455 C150.836712,26.8686545 151.554156,25.6832909 152.607156,24.6962091 C153.170316,24.1664273 153.860772,23.7306091 154.558872,23.3593909 C155.14902,23.0459727 155.831832,22.9810636 156.51012,23.4315636 C156.93444,22.2316727 157.37124,21.0823182 157.73004,19.9113273 C157.80648,19.6592636 157.59432,19.3313182 157.47108,18.8737091 C157.97184,18.7836091 158.60832,18.6683182 159.34152,18.5386545 C158.12628,21.8786909 156.96252,25.0743818 155.800944,28.2702273 C155.881908,28.3351364 155.963028,28.4036 156.04368,28.4685091 C156.61464,28.0360909 157.19652,27.6109364 157.84548,27.1316909 Z M156.1014,24.1988818 C156.00156,24.0332091 155.916696,23.7052636 155.754612,23.6692545 C155.523264,23.6153182 155.172264,23.7052636 154.979292,23.8530091 C153.559848,24.9590909 152.47206,26.2994636 151.866468,27.9424364 C151.785504,28.1586455 151.905156,28.4431636 151.932144,28.6953818 C152.19438,28.6414455 152.506848,28.6558182 152.711208,28.5261545 C154.065132,27.6758455 155.145276,26.5949545 155.808744,25.1861182 C155.93604,24.9014455 155.986116,24.5880273 156.1014,24.1988818 Z" id="Shape"></path>
            <path d="M125.130096,20.5412545 C125.041332,20.2674 124.971912,20.0620091 124.906392,19.8566182 C124.632612,19.0387636 123.891924,18.8081818 123.282432,19.4495455 C122.773248,19.9899909 122.391516,20.6565455 122.071248,21.3158364 C121.778124,21.9139273 121.643184,22.5769273 121.41168,23.3011273 C122.106036,23.3011273 122.696184,23.3011273 123.286332,23.3011273 C123.305676,23.3875182 123.32112,23.4740636 123.340308,23.5569 C122.792592,24.1514364 121.916964,23.6361818 121.168632,23.9387818 C120.659604,25.6899364 120.158064,27.5237727 119.58336,29.3396818 C119.313324,30.1899909 118.966224,31.0294818 118.557348,31.8294091 C118.140672,32.64 117.353808,33.0218818 116.397216,33.0507818 C115.907376,33.0651545 115.459968,32.8922182 115.436724,32.3625909 C115.42908,32.1644636 115.64514,31.9553636 115.760736,31.7501273 C115.934364,31.8329636 116.146524,31.8833455 116.27382,32.0094545 C116.944932,32.6651909 117.40014,32.6543727 117.766584,31.8185909 C118.144572,30.9574636 118.37982,30.0386909 118.626768,29.1342909 C119.09352,27.4084818 119.525484,25.6718545 119.992236,23.8703182 C119.58726,23.8488364 119.197572,23.8307545 118.80804,23.8126727 C118.769508,23.7514727 118.73472,23.6902727 118.696188,23.6289182 C118.892904,23.5208909 119.112708,23.2938636 119.286336,23.3227636 C120.088644,23.4451636 120.347136,23.0813636 120.516864,22.4148091 C120.794544,21.3410273 121.353804,20.3754273 122.198544,19.5756545 C122.912244,18.9018364 123.768528,18.5524091 124.782996,18.6173182 C125.28438,18.6496182 125.724144,18.8587182 125.832096,19.3775273 C125.92476,19.8603273 125.770476,20.2530273 125.130096,20.5412545 Z" id="Path"></path>
            <path d="M137.675928,28.3838182 C138.219744,28.0019364 138.76356,27.6236091 139.307532,27.2417273 C139.373052,27.3066364 139.438572,27.3751 139.504248,27.4398545 C139.137804,27.8109182 138.813792,28.2252545 138.397116,28.5388273 C137.99604,28.8449818 137.529288,29.1044636 137.043192,29.2774 C136.460844,29.4863455 136.144476,29.1729273 136.337448,28.6181091 C136.58814,27.9010182 136.885164,27.2020091 137.162844,26.4923364 C137.232264,26.5679091 137.301684,26.6436364 137.371104,26.7156545 C136.595784,27.2958182 135.824364,27.8793818 135.045144,28.4522818 C134.6904,28.7153182 134.3394,29.0035455 133.938168,29.1837455 C133.69512,29.2954818 133.2708,29.3314909 133.085784,29.2016727 C132.900612,29.0755636 132.834936,28.6901273 132.861924,28.4343545 C132.900612,28.0884818 133.077984,27.7532727 133.20528,27.4182182 C133.618056,26.3554091 134.038476,25.2924455 134.3277,24.1216091 C133.822416,24.4494 133.313232,24.7809 132.807948,25.1086909 C132.757872,25.0366727 132.703896,24.9646545 132.653664,24.8926364 C133.328676,24.1070818 134.11554,23.4261545 135.207228,23.1487455 C135.700968,23.0226364 135.924672,23.3468727 135.727956,23.8440455 C135.234216,25.1015818 134.721132,26.3518545 134.219748,27.6056818 C134.138784,27.8146273 134.092452,28.0343909 134.030676,28.2468909 C134.100096,28.2901636 134.165772,28.3369909 134.235192,28.3802636 C134.674956,28.0308364 135.203328,27.7461636 135.542784,27.3245636 C136.499376,26.1319364 137.386548,24.8926364 138.285264,23.6602909 C138.470436,23.4082273 138.532212,23.0478273 139.010508,23.2099455 C139.531236,23.3865909 139.272744,23.7108273 139.168692,23.9809727 C138.690396,25.1952364 138.192756,26.4057909 137.70666,27.6165 C137.625696,27.8181818 137.56782,28.0235727 137.4945,28.2289636 C137.552376,28.2829 137.614152,28.3334364 137.675928,28.3838182 Z" id="Path"></path>
            <path d="M146.936244,28.4459455 C147.433884,28.118 147.931524,27.7902091 148.455996,27.4478909 C148.348044,28.3198364 146.739528,29.4800091 145.890888,29.325 C145.412592,29.2386091 145.439736,28.9323 145.58232,28.6045091 C146.114748,27.3650545 146.666208,26.1291545 147.183192,24.8825909 C147.329676,24.5294545 147.387552,24.1440182 147.48786,23.7692455 C147.410796,23.7153091 147.329676,23.6612182 147.252612,23.6071273 C146.905356,23.8341545 146.515824,24.0250182 146.2149,24.2953182 C144.783912,25.5851545 143.811876,27.1740364 142.936248,28.8207182 C142.720344,29.2277909 142.469496,29.4943818 141.898692,29.1376909 C142.546716,27.4299636 143.19474,25.7256364 143.838864,24.0250182 C143.777244,23.9819 143.715468,23.9350727 143.657592,23.8918 C143.295048,24.1188273 142.936248,24.3565182 142.56606,24.5654636 C142.450308,24.6303727 142.288224,24.6231091 142.145484,24.6484545 C142.180272,24.5150818 142.168728,24.3240636 142.261236,24.2628636 C142.83984,23.8809818 143.422344,23.4991 144.047124,23.1819727 C144.228552,23.0883182 144.621984,23.1351455 144.764568,23.2648091 C144.88422,23.3765455 144.845688,23.7153091 144.772368,23.9205455 C144.567852,24.5078182 144.31326,25.0807182 144.012492,25.823 C144.664416,25.1564455 145.146456,24.5871 145.713516,24.1043 C146.126292,23.7476091 146.616132,23.4233727 147.13296,23.2325091 C147.460872,23.1099545 148.024032,23.1315909 148.255536,23.3261636 C148.482984,23.5134727 148.54086,24.0322818 148.455996,24.3565182 C148.290168,25.0014364 147.9816,25.6176091 147.719364,26.2373364 C147.426084,26.9326364 147.113772,27.6208273 146.808948,28.3125727 C146.847636,28.3594 146.893812,28.4026727 146.936244,28.4459455 Z" id="Path"></path>
            <path d="M190.06728,23.9049364 C189.60084,24.1786364 189.12972,24.4524909 188.57436,24.7804364 C188.59308,24.5677818 188.55876,24.3948455 188.62428,24.3480182 C189.21084,23.9445 189.7974,23.5266091 190.4292,23.1915545 C190.61484,23.0941909 191.02824,23.1662091 191.19672,23.3031364 C191.32464,23.4076091 191.28564,23.7643 191.21232,23.9805091 C191.02044,24.5498545 190.76928,25.0974091 190.4994,25.7639636 C191.217,25.0541364 191.81136,24.3984 192.48996,23.8292091 C192.84876,23.5266091 193.323,23.2743909 193.78632,23.1626545 C194.6958,22.9464455 195.20904,23.4652545 194.91888,24.2939273 C194.57568,25.2667909 194.14512,26.2107545 193.74264,27.1655364 C193.5882,27.5366 193.41972,27.9078182 193.25748,28.2753273 C193.30272,28.3292636 193.3464,28.3833545 193.39164,28.4337364 C193.88616,28.1022364 194.3838,27.7708909 194.99688,27.3601091 C194.93916,27.6123273 194.94228,27.7492545 194.87676,27.8393545 C194.37912,28.5238364 193.7208,29.0355364 192.85656,29.2553 C192.60852,29.3165 192.20448,29.3129455 192.07344,29.1724636 C191.94552,29.0318273 192.00324,28.6643182 192.09684,28.4374455 C192.62412,27.1474545 193.19508,25.8721455 193.72704,24.5821545 C193.83624,24.3192727 193.83936,24.0237818 193.88928,23.7391091 C193.80816,23.6922818 193.72704,23.6419 193.64748,23.5950727 C193.20756,23.9084909 192.66,24.1463364 192.34644,24.5461455 C191.37924,25.7856 190.4994,27.0862545 189.59304,28.3689818 C189.43392,28.5923 189.34968,28.8697091 189.15624,29.0570182 C189.02208,29.1903909 188.7678,29.2155818 188.56656,29.2913091 C188.51664,29.104 188.37,28.8840818 188.42772,28.7327818 C188.93316,27.4104909 189.4776,26.0990182 190.00488,24.7839909 C190.1016,24.5425909 190.164,24.2939273 190.24512,24.0489727 C190.19052,24.0021455 190.12968,23.9517636 190.06728,23.9049364 Z" id="Path"></path>
            <path d="M164.40996,28.4847364 C164.9466,28.1569455 165.47856,27.8254455 166.0152,27.4975 C166.05732,27.5299545 166.10256,27.5624091 166.14624,27.5948636 C165.98712,27.8110727 165.87636,28.0776636 165.66732,28.2289636 C165.16188,28.5964727 164.62992,28.9387909 164.06988,29.2197545 C163.85772,29.3242273 163.43808,29.3279364 163.28364,29.2018273 C163.13388,29.0792727 163.137,28.7117636 163.1916,28.4739182 C163.28364,28.0741091 163.46928,27.6920727 163.58784,27.3713909 C162.8016,27.9226545 162.01848,28.5423818 161.15424,29.0468182 C160.82976,29.2341273 160.17456,29.3134091 159.94368,29.1369182 C159.69252,28.9423455 159.61608,28.3550727 159.71592,27.9983818 C160.24788,26.1069 161.40852,24.6115182 163.23372,23.6171727 C163.8156,23.3000455 164.45988,23.0586455 165.12288,23.5919818 C165.45516,23.2569273 165.44424,22.3525273 166.3584,22.9146091 C165.6408,24.7124364 164.9232,26.4996 164.20872,28.2866091 C164.27424,28.3550727 164.33976,28.4199818 164.40996,28.4847364 Z M160.88124,27.9155455 C160.89528,28.6649364 161.26188,28.5352727 161.58636,28.3298818 C162.94824,27.4652 163.9092,26.2833909 164.502,24.8601818 C164.59872,24.6260455 164.56752,24.1468 164.41776,24.0604091 C164.17128,23.9234818 163.67676,23.8910273 163.4568,24.0350636 C161.97636,25.0187455 161.26656,26.4563273 160.88124,27.9155455 Z" id="Shape"></path>
            <path d="M124.787832,27.3248727 C125.042424,25.7539182 125.8062,24.2695091 127.538112,23.3723727 C128.209224,23.0229455 128.976744,22.9364 129.648012,23.3904545 C130.29978,23.8299818 130.396344,24.5146182 130.280592,25.1991 C130.0299,26.6978818 129.215892,27.9013273 127.946988,28.8417364 C127.815792,28.9389455 127.665252,29.0111182 127.514868,29.0795818 C126.01446,29.7748818 124.795476,29.0758727 124.787832,27.3248727 Z M129.200604,24.2370545 C129.127284,24.1109455 129.050064,23.7723364 128.857248,23.7038727 C128.622,23.6174818 128.282544,23.7182455 128.008608,23.8083455 C127.84668,23.8624364 127.715484,24.0281091 127.595832,24.1685909 C126.739548,25.1882818 126.230364,26.3557182 125.93724,27.6131 C125.883264,27.8436818 125.887164,28.1067182 125.93724,28.3373 C126.041448,28.7984636 126.388548,28.9749545 126.847656,28.7840909 C127.117536,28.6723545 127.383672,28.4742273 127.5651,28.2544636 C128.502348,27.1051091 128.996088,25.7971909 129.200604,24.2370545 Z" id="Shape"></path>
            <path d="M186.01908,25.0518182 C185.85996,26.6550727 185.01132,28.1142909 183.29532,29.0582545 C182.65104,29.4149455 181.91472,29.5123091 181.25172,29.0944182 C180.57312,28.6655545 180.492,27.9846273 180.58716,27.2964364 C180.7962,25.8409273 181.50132,24.6266636 182.72436,23.6970727 C182.99424,23.4916818 183.32652,23.3224545 183.66192,23.2215364 C185.0238,22.8107545 186.0066,23.4953909 186.01908,25.0518182 Z M181.57464,28.0279 C181.71036,28.2332909 181.83048,28.6476273 182.10036,28.7629182 C182.32344,28.8601273 182.80548,28.6871909 183.03012,28.4926182 C184.27188,27.3938 184.66032,25.9200545 184.90368,24.4177182 C184.94268,24.1834273 184.68372,23.7439 184.47156,23.6862545 C184.20168,23.6106818 183.73212,23.7330818 183.534,23.9313636 C182.44356,25.0445545 181.93032,26.4244909 181.57464,28.0279 Z" id="Shape"></path>
            <path d="M170.06652,28.2819727 C170.66088,27.8279182 171.25524,27.3775727 171.84804,26.9236727 C171.89484,26.9416 171.94164,26.9596818 171.98688,26.9740545 C171.94476,27.1326182 171.96036,27.3523818 171.85584,27.4389273 C171.14604,28.0262 170.43312,28.6134727 169.6734,29.1393909 C169.46436,29.2835818 168.9402,29.3412273 168.83568,29.2259364 C168.66564,29.0349182 168.61572,28.6386636 168.69684,28.3828909 C169.05564,27.2298273 169.48464,26.095 169.88556,24.9527545 C169.9776,24.6861636 170.0634,24.4123091 170.16324,24.0988909 C169.76544,24.0701455 169.44096,24.0448 169.11804,24.0196091 C169.08372,23.9619636 169.04472,23.9043182 169.0104,23.8431182 C169.16796,23.7349364 169.3302,23.5297 169.48464,23.5332545 C170.3676,23.5476273 170.78724,23.0540091 171.10392,22.3839 C171.24744,22.0848545 171.40968,21.7317182 171.94944,22.0380273 C171.82152,22.4704455 171.69048,22.9099727 171.52512,23.4539727 C172.11168,23.4539727 172.64364,23.4539727 173.1912,23.4539727 C173.08356,23.9656727 173.08356,23.9656727 171.26928,24.0916273 C170.79504,25.4176273 170.30988,26.7794818 169.82316,28.1377818 C169.90428,28.1918727 169.9854,28.2387 170.06652,28.2819727 Z" id="Path"></path>
            <path d="M176.4282,24.0452636 C175.98516,24.2974818 175.54524,24.5461455 175.1022,24.7983636 C175.05852,24.7622 175.0164,24.7226364 174.97428,24.6866273 C175.0554,24.5532545 175.10532,24.3732091 175.22856,24.2974818 C175.7964,23.9335273 176.36736,23.5660182 176.97264,23.2634182 C177.1926,23.1553909 177.5124,23.2238545 177.7854,23.2130364 C177.77136,23.4615455 177.82908,23.7389545 177.73236,23.9588727 C177.19572,25.1981727 176.61696,26.4232545 176.0616,27.6554455 C175.96488,27.8681 175.90716,28.0986818 175.83072,28.3184455 C175.89156,28.3688273 175.95396,28.4156545 176.01168,28.4661909 C176.52024,28.0986818 177.03036,27.7311727 177.69024,27.2554818 C177.62004,27.5328909 177.64344,27.7742909 177.53112,27.8535727 C176.8572,28.3363727 176.16612,28.8120636 175.44072,29.2226909 C175.25196,29.3308727 174.81672,29.2948636 174.67788,29.1614909 C174.54216,29.0318273 174.56556,28.6570545 174.6576,28.4445545 C175.27068,27.0177909 175.91964,25.6054 176.55924,24.1894545 C176.50932,24.1389182 176.47032,24.0920909 176.4282,24.0452636 Z" id="Path"></path>
            <path d="M177.12084,20.6614909 C177.20196,20.0233727 177.32988,19.6161455 177.92268,19.6016182 C178.347,19.5945091 178.50144,19.8467273 178.47804,20.2181 C178.4484,20.6902364 178.23936,21.0830909 177.6996,21.0795364 C177.47964,21.0795364 177.25968,20.7695182 177.12084,20.6614909 Z" id="Path"></path>
        </g>
    </g>
</svg>