<?xml version="1.0" encoding="UTF-8"?>
<svg width="230px" height="230px" viewBox="0 0 230 230" version="1.1" xmlns="http://www.w3.org/2000/svg" xmlns:xlink="http://www.w3.org/1999/xlink">
    <title>Linkedin</title>
    <defs>
        <polygon id="path-1" points="0.203 0.6514 229.551 0.6514 229.551 230 0.203 230"></polygon>
    </defs>
    <g id="Linkedin" stroke="none" stroke-width="1" fill="none" fill-rule="evenodd">
        <g>
            <path d="M100.7417,101.0786 L120.3837,101.0786 L120.3837,109.0436 C121.0967,109.1616 121.1247,108.5646 121.3727,108.2446 C122.3357,107.0016 123.4207,105.8686 124.5677,104.8026 C125.5867,103.8556 126.5847,102.8306 127.7637,102.1306 C128.9987,101.3976 130.3997,100.8576 131.7967,100.5096 C133.5397,100.0756 135.3477,99.7496 137.1377,99.6976 C138.9857,99.6426 140.8557,99.8996 142.6967,100.1576 C143.9777,100.3366 145.2877,100.5996 146.4757,101.0896 C148.0827,101.7516 149.6507,102.5636 151.1097,103.5056 C152.3577,104.3116 153.5287,105.2956 154.5557,106.3706 C156.1547,108.0446 157.4137,109.9886 158.3097,112.1376 C159.2127,114.3036 159.8147,116.5496 160.2117,118.8716 C160.6877,121.6506 160.7657,124.4376 160.763737,127.2406 C160.7577,137.9426 160.7617,148.6446 160.7617,159.3466 C160.7617,160.3446 160.7607,160.3446 159.7317,160.3446 C153.7697,160.3456 147.8077,160.3346 141.8457,160.3586 C141.1667,160.3616 140.9497,160.1896 140.9517,159.4836 C140.9737,149.1886 140.9987,138.8936 140.9437,128.5986 C140.9307,126.1546 140.7337,123.6856 139.8067,121.3756 C139.0267,119.4326 138.2037,117.4736 136.1867,116.4366 C135.0817,115.8696 133.9267,115.4036 132.6527,115.3846 C131.7427,115.3706 130.8307,115.3456 129.9227,115.3886 C126.7997,115.5366 124.3867,116.9556 122.6847,119.5626 C122.0547,120.5266 121.4017,121.4986 120.9507,122.5486 C120.6077,123.3466 120.4177,124.2726 120.4147,125.1426 C120.3817,136.5626 120.3927,147.9836 120.3927,159.4036 C120.3927,160.3436 120.3917,160.3446 119.4497,160.3446 C113.5117,160.3456 107.5737,160.3316 101.6357,160.362652 C100.8887,160.3666 100.7257,160.1386 100.726695,159.4266 C100.7457,140.2486 100.7417,121.0716 100.7417,101.8946 L100.7417,101.0786 Z" id="Fill-6" fill="#FFFFFF"></path>
            <path d="M69.8545,101.0479 L70.6575,101.0479 C76.7385,101.0479 82.8195,101.0589 88.9005,101.032871 C89.6015,101.0299 89.8025,101.2589 89.8015,101.9279 C89.7905,121.1509 89.7905,140.3739 89.8055,159.5959 C89.8055,160.2149 89.5935,160.3569 89.0165,160.355905 C82.8875,160.3389 76.7585,160.3389 70.6305,160.355905 C70.0525,160.3569 69.8415,160.2139 69.8424965,159.5959 C69.8575,140.2769 69.8545,120.9589 69.8545,101.6399 L69.8545,101.0479 Z" id="Fill-8" fill="#FFFFFF"></path>
            <path d="M79.8208,92.9766 C77.9518,92.9056 76.1588,92.5796 74.5088,91.7976 C72.4888,90.8416 70.8488,89.4036 69.8598,87.3356 C68.5958,84.6976 68.4668,81.9806 69.4408,79.2426 C70.2098,77.0806 71.6748,75.4746 73.6638,74.3206 C75.0388,73.5216 76.4998,72.9916 78.0778,72.9086 C79.5638,72.8306 81.0798,72.7316 82.5388,72.9436 C83.6948,73.1116 84.8248,73.6546 85.8958,74.1766 C87.6408,75.0266 88.9128,76.4686 89.8298,78.1156 C90.5408,79.3936 90.9228,80.8416 91.1218,82.3446 C91.3438,84.0196 90.8748,85.4806 90.2328,86.9486 C89.4348,88.7736 88.0058,90.0726 86.4278,91.1446 C85.5138,91.7666 84.3578,92.0846 83.2668,92.3776 C82.1458,92.6796 80.9718,92.7856 79.8208,92.9766" id="Fill-10" fill="#FFFFFF"></path>
            <g id="Group-14">
                <mask id="mask-2" fill="white">
                    <use xlink:href="#path-1"></use>
                </mask>
                <g id="Clip-13"></g>
                <path d="M114.877,10.6514 C57.159,10.6514 10.203,57.6084 10.203,115.3254 C10.203,173.0434 57.159,220.0004 114.877,220.0004 C172.595,220.0004 219.551,173.0434 219.551,115.3254 C219.551,57.6084 172.595,10.6514 114.877,10.6514 M114.877,230.0004 C51.646,230.0004 0.203,178.5574 0.203,115.3254 C0.203,52.0944 51.646,0.6514 114.877,0.6514 C178.108,0.6514 229.551,52.0944 229.551,115.3254 C229.551,178.5574 178.108,230.0004 114.877,230.0004" id="Fill-12" fill="#FFFFFF" mask="url(#mask-2)"></path>
            </g>
        </g>
    </g>
</svg>