<?xml version="1.0" encoding="UTF-8"?>
<svg width="32px" height="26px" viewBox="0 0 32 26" version="1.1" xmlns="http://www.w3.org/2000/svg" xmlns:xlink="http://www.w3.org/1999/xlink">
    <title>Shape</title>
    <g id="Page-1" stroke="none" stroke-width="1" fill="none" fill-rule="evenodd">
        <g id="Optimist-Confirmation-Page-xs-mobile" transform="translate(-16.000000, -45.000000)" fill="#000000">
            <g id="BMGF_condensed_logo" transform="translate(16.000000, 45.000000)">
                <path d="M15.6454,13.4324 C15.6454,11.3162 15.514,11.029 14.4521,10.7408 C14.2404,10.6905 13.7877,10.6628 13.5488,10.6628 C13.4424,10.6628 13.3371,10.6136 13.3371,10.5048 C13.3371,10.353 13.4685,10.3017 13.7606,10.3017 C14.958,10.3017 16.6301,10.3776 16.7626,10.3776 C16.8972,10.3776 18.5703,10.3017 19.3672,10.3017 C19.6593,10.3017 19.7918,10.354 19.7918,10.5048 C19.7918,10.6136 19.6874,10.6628 19.5779,10.6628 C19.3933,10.6628 19.2337,10.6905 18.9145,10.7408 C18.1969,10.8731 17.9862,11.3162 17.934,12.2312 C17.8798,13.0641 17.8798,13.8457 17.8798,14.9402 L17.8798,17.8637 C17.8798,19.0381 17.8526,19.0864 17.5334,19.2679 C15.8332,20.1573 13.4435,20.4424 11.9018,20.4424 C9.8844,20.4424 6.11256,20.1829 3.16163,17.6554 C1.5417,16.2665 0,13.4806 0,10.2238 C0,6.04789 2.07159,3.10293 4.4363,1.64225 C6.82708,0.18156 9.45882,0 11.5022,0 C13.1754,0 15.0623,0.341579 15.5651,0.446207 C16.1232,0.576478 17.0557,0.68008 17.7191,0.705725 C17.9862,0.731369 18.0383,0.835996 18.0383,0.939598 C18.0383,1.30477 17.8505,2.03204 17.8505,4.64363 C17.8505,5.06111 17.7974,5.18933 17.6127,5.18933 C17.4792,5.18933 17.4542,5.03342 17.426,4.79954 C17.3999,4.43437 17.2675,3.703 16.869,3.07729 C16.2045,2.08435 14.0505,0.965242 10.625,0.965242 C8.94979,0.965242 6.95851,1.12116 4.94012,2.6875 C3.39946,3.88867 2.31046,6.2551 2.31046,9.31085 C2.31046,12.9851 4.19847,15.648 5.12787,16.5312 C7.22659,18.5386 9.64345,19.3243 12.0885,19.3243 C13.044,19.3243 14.425,19.1643 15.1145,18.7745 C15.4598,18.5909 15.6454,18.3047 15.6454,17.8637 L15.6454,13.4324 Z M27.7986,3.00856 C27.6056,3.09165 27.2124,3.31937 26.89,3.55734 C26.89,3.55734 26.3435,3.99227 25.8,4.62516 C24.3678,6.29203 23.5626,8.14763 22.9325,10.2915 L21.2062,10.2925 C20.8901,10.5069 20.7942,10.9592 21.0362,11.1736 L22.6905,11.1726 C21.5264,15.0541 20.8265,19.151 19.7104,22.9145 C19.1523,24.7486 18.6433,24.9147 18.1572,24.9147 C17.6232,24.9147 16.8961,24.5342 16.313,23.9382 C16.167,23.771 15.949,23.7002 15.755,23.8428 C15.4879,24.0336 15.1969,24.4378 15.1969,24.9147 C15.1969,25.2061 15.5119,25.7897 16.3339,26 L17.6649,26 C18.7528,25.7682 19.5779,25.0727 19.8794,24.7958 C20.3644,24.3188 21.347,23.1104 21.9781,20.9676 C22.7542,18.3478 23.4092,16.0614 24.1373,13.3944 C24.4283,12.3471 24.6223,11.585 24.7684,11.1798 L27.2593,11.1747 C27.6233,10.9131 27.6713,10.5551 27.5023,10.2935 L24.9874,10.2987 C25.6425,8.03582 25.946,6.34024 27.0622,4.74518 C27.4502,4.18203 27.7892,3.8979 28.1678,3.65787 C28.5757,3.40348 28.8698,3.25372 29.4602,3.30501 C30.9717,3.4363 30.4199,5.35653 30.8371,5.45295 C31.584,5.64272 31.9449,4.33179 31.971,4.28563 C32.0388,4.16767 32.1035,2.9901 30.7286,2.59005 C30.4032,2.49568 29.8681,2.45568 29.2328,2.55415 C28.6268,2.61775 28.1073,2.85367 27.7986,3.00856 Z" id="Shape"></path>
            </g>
        </g>
    </g>
</svg>