<?xml version="1.0" encoding="UTF-8"?>
<svg width="231px" height="230px" viewBox="0 0 231 230" version="1.1" xmlns="http://www.w3.org/2000/svg" xmlns:xlink="http://www.w3.org/1999/xlink">
    <title>Facebook</title>
    <defs>
        <polygon id="path-1" points="0.7835 0.6514 230.1315 0.6514 230.1315 230 0.7835 230"></polygon>
    </defs>
    <g id="Facebook" stroke="none" stroke-width="1" fill="#000000">
        <g>
            <path d="M125.6099,176.1226 L125.6099,120.6576 L145.6849,120.6576 L148.6919,99.0416 L125.6099,99.0416 L125.6099,85.2416 C125.6099,78.9836 127.4839,74.7186 137.1609,74.7186 L149.5039,74.7136 L149.5039,55.3806 C147.3699,55.1176 140.0429,54.5286 131.5179,54.5286 C113.7219,54.5286 101.5389,64.6016 101.5389,83.1016 L101.5389,99.0416 L81.4119,99.0416 L81.4119,120.6576 L101.5389,120.6576 L101.5389,176.1226 L125.6099,176.1226 Z" id="Fill-15" fill="#000000"></path>
            <g id="Group-19">
                <mask id="mask-2" fill="#000000">
                    <use xlink:href="#path-1"></use>
                </mask>
                <g id="Clip-18"></g>
                <path d="M115.4575,10.6514 C57.7405,10.6514 10.7835,57.6084 10.7835,115.3254 C10.7835,173.0434 57.7405,220.0004 115.4575,220.0004 C173.1755,220.0004 220.1315,173.0434 220.1315,115.3254 C220.1315,57.6084 173.1755,10.6514 115.4575,10.6514 M115.4575,230.0004 C52.2265,230.0004 0.7835,178.5574 0.7835,115.3254 C0.7835,52.0944 52.2265,0.6514 115.4575,0.6514 C178.6885,0.6514 230.1315,52.0944 230.1315,115.3254 C230.1315,178.5574 178.6885,230.0004 115.4575,230.0004" id="Fill-17" fill="#000000" mask="url(#mask-2)"></path>
            </g>
        </g>
    </g>
</svg>