<?xml version="1.0" encoding="UTF-8"?>
<svg width="230px" height="230px" viewBox="0 0 230 230" version="1.1" xmlns="http://www.w3.org/2000/svg" xmlns:xlink="http://www.w3.org/1999/xlink">
    <title>Twitter</title>
    <defs>
        <polygon id="path-1" points="0.0003 0.6514 229.3483 0.6514 229.3483 230 0.0003 230"></polygon>
    </defs>
    <g id="Twitter" stroke="none" stroke-width="1" fill="#000000" fill-rule="evenodd">
        <g>
            <path d="M94.4121,165.1206 L89.6721,165.1206 C89.5761,165.0966 89.4801,165.0546 89.3831,165.0516 C85.4441,164.9286 81.5441,164.4576 77.6861,163.6666 C69.2981,161.9456 61.4741,158.8036 54.2061,154.2776 C54.0121,154.1566 53.8231,154.0256 53.6311,153.8996 C60.2491,154.5666 66.7491,154.0786 73.1401,152.2916 C79.5231,150.5056 85.3221,147.5626 90.5371,143.4606 C85.2051,143.2416 80.3851,141.6176 76.1201,138.4256 C71.8521,135.2316 68.9061,131.0846 67.2031,125.9596 C69.1241,126.3156 70.9681,126.4736 72.8261,126.3996 C74.6841,126.3246 76.5211,126.0846 78.3161,125.5416 C72.4991,124.2036 67.6771,121.2746 63.9421,116.6336 C60.1951,111.9766 58.4051,106.6236 58.3971,100.5726 C60.1761,101.5496 61.9641,102.2956 63.8421,102.8146 C65.7151,103.3326 67.6151,103.6596 69.5721,103.6646 C64.2331,99.8456 60.6831,94.8136 59.2421,88.4056 C57.8051,82.0156 58.7601,75.9496 62.0051,70.1846 C68.4641,78.0396 76.1361,84.2576 85.1301,88.8226 C94.1241,93.3886 103.6671,95.8986 113.7641,96.4366 C113.7471,96.3226 113.7431,96.2716 113.7321,96.2216 C113.0881,93.2756 112.9551,90.3096 113.3691,87.3216 C114.1331,81.7976 116.4661,77.0276 120.3861,73.0736 C124.7791,68.6426 130.1161,66.1646 136.3481,65.6776 C140.9621,65.3156 145.3521,66.1756 149.4991,68.2376 C152.0421,69.5026 154.3031,71.1606 156.2841,73.1966 C156.4541,73.3706 156.5891,73.5466 156.9121,73.4796 C162.3371,72.3536 167.4441,70.4046 172.2321,67.6176 C172.3141,67.5696 172.4041,67.5346 172.5661,67.4576 C170.5691,73.3606 166.9671,77.9006 161.8021,81.2386 C166.7041,80.6756 171.3791,79.3776 175.8701,77.4026 C175.8101,77.5176 175.7611,77.6396 175.6891,77.7456 C172.4161,82.5576 168.4301,86.6816 163.7481,90.1336 C163.5181,90.3046 163.4101,90.4616 163.4191,90.7736 C163.4561,91.9696 163.4571,93.1656 163.4551,94.3626 C163.4501,98.6236 162.9751,102.8406 162.1541,107.0166 C160.8171,113.8106 158.5751,120.2976 155.4391,126.4736 C151.2841,134.6576 145.8341,141.8496 138.9561,147.9416 C133.4761,152.7956 127.3661,156.6566 120.6201,159.5086 C112.4751,162.9526 103.9651,164.7096 95.1431,165.0376 C94.8991,165.0466 94.6561,165.0926 94.4121,165.1206" id="Fill-1" fill="#000000"></path>
            <g id="Group-5">
                <mask id="mask-2" fill="#000000">
                    <use xlink:href="#path-1"></use>
                </mask>
                <g id="Clip-4"></g>
                <path d="M114.6743,10.6514 C56.9563,10.6514 10.0003,57.6084 10.0003,115.3254 C10.0003,173.0434 56.9563,220.0004 114.6743,220.0004 C172.3923,220.0004 219.3483,173.0434 219.3483,115.3254 C219.3483,57.6084 172.3923,10.6514 114.6743,10.6514 M114.6743,230.0004 C51.4433,230.0004 0.0003,178.5574 0.0003,115.3254 C0.0003,52.0944 51.4433,0.6514 114.6743,0.6514 C177.9053,0.6514 229.3483,52.0944 229.3483,115.3254 C229.3483,178.5574 177.9053,230.0004 114.6743,230.0004" id="Fill-3" fill="#000000" mask="url(#mask-2)"></path>
            </g>
        </g>
    </g>
</svg>