<?xml version="1.0" encoding="UTF-8"?>
<svg width="231px" height="230px" viewBox="0 0 231 230" version="1.1" xmlns="http://www.w3.org/2000/svg" xmlns:xlink="http://www.w3.org/1999/xlink">
    <title>YouTube</title>
    <defs>
        <polygon id="path-1" points="0.9456 0.6514 230.2936 0.6514 230.2936 230 0.9456 230"></polygon>
    </defs>
    <g id="YouTube" stroke="none" stroke-width="1" fill="#000000" fill-rule="evenodd">
        <g>
            <g id="Group-22">
                <mask id="mask-2" fill="black">
                    <use xlink:href="#path-1"></use>
                </mask>
                <g id="Clip-21"></g>
                <path d="M115.6196,10.6514 C57.9026,10.6514 10.9456,57.6084 10.9456,115.3254 C10.9456,173.0434 57.9026,220.0004 115.6196,220.0004 C173.3376,220.0004 220.2936,173.0434 220.2936,115.3254 C220.2936,57.6084 173.3376,10.6514 115.6196,10.6514 M115.6196,230.0004 C52.3886,230.0004 0.9456,178.5574 0.9456,115.3254 C0.9456,52.0944 52.3886,0.6514 115.6196,0.6514 C178.8506,0.6514 230.2936,52.0944 230.2936,115.3254 C230.2936,178.5574 178.8506,230.0004 115.6196,230.0004" id="Fill-20" fill="#000000" mask="url(#mask-2)"></path>
            </g>
            <path d="M102.9233,134.9712 L102.9233,95.6122 C114.3213,102.1712 125.6733,108.7032 137.1223,115.2912 C125.6823,121.8742 114.3373,128.4032 102.9233,134.9712 M180.8303,97.2732 C180.8103,94.7742 180.4503,92.2642 180.0783,89.7842 C179.7373,87.5102 179.3823,85.1972 178.6583,83.0262 C176.6483,77.0002 172.4133,73.3052 166.2053,71.9372 C162.9653,71.2232 159.6653,70.8942 156.3593,70.7062 C149.7623,70.3312 143.1653,69.9032 136.5613,69.7332 C127.8833,69.5092 119.1993,69.4182 110.5183,69.4482 C103.2143,69.4722 95.9083,69.6912 88.6073,69.9352 C83.9063,70.0922 79.2083,70.4042 74.5153,70.7342 C71.3333,70.9582 68.1313,71.1892 65.0413,72.0232 C58.7783,73.7142 54.7803,77.7842 53.0383,84.0022 C52.0893,87.3922 51.7303,90.8962 51.3823,94.3942 C50.8203,100.0412 50.5523,105.7052 50.4383,111.3772 C50.4333,111.6122 50.3873,111.8462 50.3613,112.0812 L50.3613,118.5022 C50.3923,118.8892 50.4333,119.2762 50.4523,119.6642 C50.6693,124.1732 50.8093,128.6882 51.1173,133.1912 C51.4243,137.6762 51.8383,142.1672 53.0263,146.5202 C54.8203,153.0942 59.1383,157.1302 65.7693,158.6362 C68.9853,159.3662 72.2723,159.6772 75.5593,159.8692 C81.9153,160.2392 88.2743,160.5942 94.6363,160.8392 C99.6413,161.0332 104.6533,161.0522 109.6633,161.1512 C109.8473,161.1552 110.0313,161.1892 110.2153,161.2092 L121.9413,161.2092 C122.5493,161.1792 123.1583,161.1372 123.7673,161.1222 C130.2383,160.9722 136.7133,160.9002 143.1813,160.6582 C148.3563,160.4642 153.5303,160.1402 158.6933,159.7292 C161.4443,159.5102 164.2253,159.2062 166.8963,158.5482 C173.2653,156.9792 177.2953,152.8552 179.0013,146.5392 C179.8703,143.3232 180.1973,140.0042 180.5833,136.7002 C180.8923,134.0572 180.8633,131.4122 180.8643,128.7642 C180.8653,118.2672 180.9123,107.7702 180.8303,97.2732" id="Fill-23" fill="#000000"></path>
        </g>
    </g>
</svg>